# xmcd CD database file
#
# Track frame offsets:
#	150
#	38467
#	64717
#	88215
#	100429
#	113909
#	137252
#	156452
#	168084
#	190371
#	225436
#	231578
#	235686
#	241992
#	245446
#	255438
#	268866
#
# Disc length: 4004 seconds
#
# Revision: 4
# Processed by: cddbd v1.5.2PL0 Copyright (c) Steve Scherf et al.
# Submitted via: CDex 1.51
#
DISCID=de0fa211
DTITLE=Liszt - L'Oeuvre pour Piano - France Clidat  [CD 12-14]
DYEAR=1974
DGENRE=Piano
TTITLE0=Glanes de Woronince, S.249 - Ballade Ukraine       [rec. 1973]
TTITLE1=Glanes de Woronince, S.249 - Mélodies polonaises
TTITLE2=Glanes de Woronince, S.249 - Complainte
TTITLE3=7 Portraits historiques hongrois, S.205 - N°1 - Széchenyi István       [rec. 1974]
TTITLE4=7 Portraits historiques hongrois, S.205 - N°2 - Eötvös József
TTITLE5=7 Portraits historiques hongrois, S.205 - N°3 - Vörösmarty Mihály
TTITLE6=7 Portraits historiques hongrois, S.205 - N°4 - Teleky Lászlo
TTITLE7=7 Portraits historiques hongrois, S.205 - N°5 - Deák Ferenc
TTITLE8=7 Portraits historiques hongrois, S.205 - N°6 - Petofi Sándor
TTITLE9=7 Portraits historiques hongrois, S.205 - N°7 - Mosonyi Mihaly
TTITLE10=5 Ungarische Volkslieder, S.245  (5 chansons populaires hongroises) - N°1 - Lassan  (Lento)
TTITLE11=5 Ungarische Volkslieder, S.245  (5 chansons populaires hongroises) - N°2 - Mérsekélve  (Allegretto)
TTITLE12=5 Ungarische Volkslieder, S.245  (5 chansons populaires hongroises) - N°3 - Lassan  (Andante)
TTITLE13=5 Ungarische Volkslieder, S.245  (5 chansons populaires hongroises) - N°4 - Kissé élénken  (Vivace)
TTITLE14=5 Ungarische Volkslieder, S.245  (5 chansons populaires hongroises) - N°5 - Búsongva  (Lento)
TTITLE15=Puszta-Wehmut, S.246
TTITLE16=''Zum Andenken'' (Ungarische Werbungstänze), S.241 - Un mouvement de caractère hongrois
EXTD=YEAR: 1974
EXTT0=
EXTT1=
EXTT2=
EXTT3=
EXTT4=
EXTT5=
EXTT6=
EXTT7=
EXTT8=
EXTT9=
EXTT10=
EXTT11=
EXTT12=
EXTT13=
EXTT14=
EXTT15=
EXTT16=
PLAYORDER=
